<svg height="512pt" viewBox="-54 0 512 512" width="512pt" xmlns="http://www.w3.org/2000/svg"><path d="m371.238281 191.285156c-26.710937-11.351562-102.140625-37.246094-105.339843-38.34375l-2.953126 67.839844c1.8125 1 44.726563 24.542969 78.230469 34.433594 8.933594 2.636718 16.960938 3.800781 24.050781 3.800781 19.957032-.003906 32.457032-9.234375 36.621094-20.84375 5.25-14.632813-2.179687-34.808594-30.609375-46.886719zm0 0" fill="#ffc396"/><path d="m138.230469 152.84375c-3.226563 1.105469-79.339844 27.183594-106.054688 38.535156-28.433593 12.078125-35.863281 32.253906-30.613281 46.890625 4.164062 11.605469 16.660156 20.839844 36.625 20.839844 7.085938 0 15.117188-1.164063 24.046875-3.796875 33.503906-9.890625 77.144531-33.820312 78.984375-34.835938zm0 0" fill="#fad2b4"/><path d="m323.601562 457.203125-23.96875-101.503906-83.898437 6.179687 20.671875 113.546875c3.855469 21.191407 22.292969 36.574219 43.835938 36.574219 13.699218 0 26.433593-6.164062 34.9375-16.90625 8.5-10.742188 11.570312-24.554688 8.421874-37.890625zm0 0" fill="#ffc396"/><path d="m104.445312 355.699219-23.972656 101.503906c-3.148437 13.335937-.078125 27.144531 8.425782 37.890625 8.503906 10.742188 21.238281 16.90625 34.9375 16.90625 21.542968 0 39.976562-15.382812 43.835937-36.574219l20.671875-113.542969zm0 0" fill="#fad2b4"/><path d="m271.632812 146.105469-14.730468 3.378906h-109.726563l-14.730469-3.378906-52.335937 228.179687h243.855469zm0 0" fill="#96d778"/><path d="m238.621094 166.976562-1.320313-2.472656-13.328125 7.121094h-43.867187l-13.332031-7.117188-1.316407 2.46875c-2.910156 5.71875-4.449219 12.152344-4.449219 18.597657 0 21.152343 16.367188 53.125 41.03125 53.125 24.667969 0 41.035157-31.972657 41.035157-53.125-.003907-6.445313-1.542969-12.875-4.453125-18.597657zm0 0" fill="#fad2b4"/><path d="m183.878906 31.753906c-8.15625-19.289062-26.960937-31.753906-47.90625-31.753906-28.675781 0-52.003906 23.328125-52.003906 52.003906 0 26.789063 20.078125 49.03125 46.703125 51.734375zm0 0" fill="#8d5c4d"/><path d="m266.179688 0c-21.355469 0-40.304688 12.804688-48.265626 32.621094l56.511719 70.730468c25.355469-4.050781 43.757813-25.644531 43.757813-51.347656 0-28.675781-23.328125-52.003906-52.003906-52.003906zm0 0" fill="#5e382c"/><path d="m202.039062 16.625c-47.84375 0-86.769531 38.921875-86.769531 86.765625 0 47.847656 38.925781 86.769531 86.769531 86.769531s86.769532-38.921875 86.769532-86.769531c0-47.84375-38.925782-86.765625-86.769532-86.765625zm0 0" fill="#fcdeca"/><path d="m288.726562 99.769531h-173.375c1.890626-46.164062 40.046876-83.140625 86.6875-83.140625 46.640626 0 84.792969 36.976563 86.6875 83.140625zm0 0" fill="#a37862"/><path d="m201.707031 374.285156h122.257813l-52.332032-228.179687-14.730468 3.378906h-55.195313zm0 0" fill="#86c42b"/><path d="m238.621094 166.976562-1.320313-2.472656-13.328125 7.121094h-22.265625v67.0625c.109375 0 .21875.011719.332031.011719 24.667969 0 41.03125-31.972657 41.03125-53.121094 0-6.449219-1.539062-12.878906-4.449218-18.601563zm0 0" fill="#ffc396"/><path d="m202.039062 16.625c-.113281 0-.222656.007812-.332031.007812v173.519532c.109375 0 .21875.007812.332031.007812 47.84375 0 86.769532-38.925781 86.769532-86.769531s-38.925782-86.765625-86.769532-86.765625zm0 0" fill="#fad2b4"/><path d="m201.707031 99.769531h87.019531c-1.894531-46.164062-40.046874-83.140625-86.6875-83.140625-.113281 0-.222656.007813-.332031.007813zm0 0" fill="#8d5c4d"/></svg>