<svg height="512pt" viewBox="0 0 512.001 512" width="512pt" xmlns="http://www.w3.org/2000/svg"><path d="m442 135h-372l186 346.996094h121zm0 0" fill="#ffa356"/><path d="m70 135 65 346.996094h121v-346.996094zm0 0" fill="#ffbe4e"/><path d="m377 175v171.996094l-40 95h129.996094v-266.996094zm0 0" fill="#ffbe4e"/><path d="m45 175v266.996094h130l-40-95v-171.996094zm0 0" fill="#ffe26c"/><path d="m45 406.996094c-24.8125 0-45 20.1875-45 45v60h135l50-105zm0 0" fill="#90cb5c"/><path d="m511.996094 451.996094c0-24.8125-20.1875-45-45-45h-139.996094l50 105h135zm0 0" fill="#6dc250"/><path d="m317 303.535156c0-33.6875-27.3125-60.996094-61-60.996094l-61 164.457032h122zm0 0" fill="#3e2f4d"/><path d="m195 303.535156v103.460938h61v-164.457032c-33.6875 0-61 27.308594-61 60.996094zm0 0" fill="#5b324c"/><path d="m362 104h-106l-59.996094 37.5 59.996094 37.5h106zm0 0" fill="#ffbe4e"/><path d="m150 104h106v75h-106zm0 0" fill="#ffe26c"/><path d="m128.167969 21.167969c-7.953125-12.710938-22.066407-21.167969-38.164063-21.167969s-30.210937 8.457031-38.164062 21.167969l-51.83593775 82.832031 89.99999975 60 89.996094-60zm0 0" fill="#ff4154"/><path d="m.00390625 104v61c0 24.8125 20.18359375 45 44.99609375 45h90c24.8125 0 45-20.1875 45-45v-61zm0 0" fill="#fff8d9"/><path d="m460.164062 21.167969c-7.953124-12.710938-22.066406-21.167969-38.164062-21.167969s-30.210938 8.457031-38.164062 21.167969l-51.835938 82.832031 90 60 89.996094-60zm0 0" fill="#d63d52"/><path d="m332 104v61c0 24.8125 20.1875 45 45 45h89.996094c24.8125 0 45-20.1875 45-45v-61zm0 0" fill="#ffe26c"/><path d="m357 451.996094c0-55.78125-45.21875-101-101-101l-60 80.5 60 80.5h61zm0 0" fill="#ff855c"/><path d="m155 451.996094 40 60h61v-161c-55.78125 0-101 45.21875-101 101zm0 0" fill="#ffa356"/><path d="m165 316.996094c-16.570312 0-30 13.433594-30 30v165h60v-165c0-16.566406-13.433594-30-30-30zm0 0" fill="#fff8d9"/><path d="m347 316.996094c-16.566406 0-30 13.433594-30 30v165h60v-165c0-16.566406-13.429688-30-30-30zm0 0" fill="#ffe26c"/></svg>